<?xml version="1.0" encoding="UTF-8" standalone="no"?>
<!DOCTYPE svg PUBLIC "-//W3C//DTD SVG 1.1//EN" "http://www.w3.org/Graphics/SVG/1.1/DTD/svg11.dtd">
<svg width="100%" height="100%" viewBox="0 0 774 301" version="1.1" xmlns="http://www.w3.org/2000/svg" xmlns:xlink="http://www.w3.org/1999/xlink" xml:space="preserve" xmlns:serif="http://www.serif.com/" style="fill-rule:evenodd;clip-rule:evenodd;stroke-linecap:round;stroke-linejoin:round;stroke-miterlimit:1.5;">
    <g id="Artboard1" transform="matrix(0.959343,0,0,0.492719,2.0227,2.37454)">
        <rect x="-2.108" y="-4.819" width="806.024" height="610.843" style="fill:none;"/>
        <g id="Background" transform="matrix(1.16391,0,0,2.02955,-42.8566,-322.935)">
            <g transform="matrix(0.895582,0,0,1,-2.10842,-4.81927)">
                <path d="M290.531,274.469C294.955,267.25 303.743,264.395 316.792,265.801C309.77,273.193 301.003,276.047 290.531,274.469Z" style="fill:rgb(254,103,93);"/>
            </g>
            <g transform="matrix(0.895582,0,0,1,-2.10842,-4.81927)">
                <path d="M281.683,407.859C269.02,399.997 261.616,388.468 260.337,372.671" style="fill:rgb(254,103,93);"/>
            </g>
            <g transform="matrix(0.895582,0,0,1,-2.10842,-4.81927)">
                <path d="M260.337,372.671C271.385,382.828 279.26,394.253 281.683,407.859" style="fill:rgb(254,103,93);"/>
            </g>
            <g transform="matrix(0.895582,0,0,1,-2.10842,-4.81927)">
                <path d="M60.857,382.681C98.707,456.661 229.136,477.63 301.188,418.706C335.37,393.059 345.714,352.816 338.626,301.901C332.656,259.979 315.014,227.7 289.672,201.781C266.371,180.911 237.289,168.084 198.49,168.776C199.289,185.039 201.686,203.47 192.678,206.423C184.164,202.716 186.135,185.728 187.878,169.028C152.682,168.881 120.911,181.809 93.127,209.961C71.378,232.664 55.833,260.024 52.952,294.858C47.555,326.067 48.057,355.516 60.857,382.681Z" style="fill:rgb(254,103,93);"/>
            </g>
            <g transform="matrix(0.895582,0,0,1,-2.10842,-4.81927)">
                <path d="M187.055,221.225C177.55,252.175 176.559,281.803 192.068,308.871" style="fill:rgb(254,103,93);"/>
            </g>
            <g transform="matrix(0.895582,0,0,1,-2.10842,-4.81927)">
                <path d="M185.276,215.727C170.31,252.42 166.811,285.334 189.804,309.518" style="fill:rgb(254,103,93);"/>
            </g>
            <g transform="matrix(0.895582,0,0,1,-2.10842,-4.81927)">
                <path d="M201.429,309.789C212.593,282.205 210.135,251.647 197.289,218.819" style="fill:rgb(254,103,93);"/>
            </g>
            <g transform="matrix(0.895582,0,0,1,-2.10842,-4.81927)">
                <path d="M199.566,217.681C216.626,249.227 221.248,279.623 205.465,308.134" style="fill:rgb(254,103,93);"/>
            </g>
            <g transform="matrix(0.895582,0,0,1,-2.10842,-4.81927)">
                <path d="M211.414,316.674C234.377,292.976 257.554,279.138 280.948,275.276" style="fill:rgb(254,103,93);"/>
            </g>
            <g transform="matrix(0.895582,0,0,1,-2.10842,-4.81927)">
                <path d="M212.546,309.72C240.685,278.883 265.156,260.443 280.786,271.88" style="fill:rgb(254,103,93);"/>
            </g>
            <g transform="matrix(0.895582,0,0,1,-2.10842,-4.81927)">
                <path d="M216.588,323.789C242.433,315.327 264.86,302.443 283.374,284.494" style="fill:rgb(254,103,93);"/>
            </g>
            <g transform="matrix(0.895582,0,0,1,-2.10842,-4.81927)">
                <path d="M218.367,325.891C255.53,318.379 280.073,305.675 288.063,282.391" style="fill:rgb(254,103,93);"/>
            </g>
            <g transform="matrix(0.895582,0,0,1,-2.10842,-4.81927)">
                <path d="M217.185,333.447C237.61,337.268 251.926,346.134 256.854,362.757" style="fill:rgb(254,103,93);"/>
            </g>
            <g transform="matrix(0.895582,0,0,1,-2.10842,-4.81927)">
                <path d="M218.195,330.163C247.523,334.74 265.264,343.69 258.875,361.746" style="fill:rgb(254,103,93);"/>
            </g>
            <g transform="matrix(0.895582,0,0,1,-2.10842,-4.81927)">
                <path d="M204.046,337.49C218.229,348.69 233.739,359.392 253.316,368.568" style="fill:rgb(254,103,93);"/>
            </g>
            <g transform="matrix(0.895582,0,0,1,-2.10842,-4.81927)">
                <path d="M203.541,339.764C219.721,361.723 235.115,373.73 249.274,370.084" style="fill:rgb(254,103,93);"/>
            </g>
            <g transform="matrix(0.895582,0,0,1,-2.10842,-4.81927)">
                <path d="M195.708,343.807C183.459,361.829 169.045,372.275 152.754,376.148" style="fill:rgb(254,103,93);"/>
            </g>
            <g transform="matrix(0.895582,0,0,1,-2.10842,-4.81927)">
                <path d="M192.928,339.764C175.399,348.559 162.199,359.52 152.754,372.358" style="fill:rgb(254,103,93);"/>
            </g>
            <g transform="matrix(0.895582,0,0,1,-2.10842,-4.81927)">
                <path d="M180.042,336.985C156.511,341.455 143.186,351.801 141.889,369.074" style="fill:rgb(254,103,93);"/>
            </g>
            <g transform="matrix(0.895582,0,0,1,-2.10842,-4.81927)">
                <path d="M178.526,334.458C146.438,338.817 130.855,349.722 137.847,369.579" style="fill:rgb(254,103,93);"/>
            </g>
            <g transform="matrix(0.895582,0,0,1,-2.10842,-4.81927)">
                <path d="M104.494,290.241C125.617,306.302 148.633,320.179 178.526,326.12" style="fill:rgb(254,103,93);"/>
            </g>
            <g transform="matrix(0.895582,0,0,1,-2.10842,-4.81927)">
                <path d="M103.736,292.768C119.096,313.96 141.181,328.428 176.758,329.405" style="fill:rgb(254,103,93);"/>
            </g>
            <g transform="matrix(0.895582,0,0,1,-2.10842,-4.81927)">
                <path d="M183.327,317.529C170.063,321.15 142.19,276.57 109.295,282.408" style="fill:rgb(254,103,93);"/>
            </g>
            <g transform="matrix(0.895582,0,0,1,-2.10842,-4.81927)">
                <path d="M108.032,275.839C138.797,276.445 162.753,285.17 176,306.664" style="fill:rgb(254,103,93);"/>
            </g>
            <g transform="matrix(0.895582,0,0,1,-2.10842,-4.81927)">
                <path d="M199.664,358.829C203.869,375.345 204.43,390.74 199.664,404.496C195.63,389.274 195.42,374.051 199.664,358.829Z" style="fill:rgb(254,103,93);"/>
            </g>
            <g transform="matrix(0.895582,0,0,1,-2.10842,-4.81927)">
                <path d="M136.322,377.571C131.459,390.878 124.074,400.245 114.795,406.653C119.039,392.694 126.007,382.698 136.322,377.571Z" style="fill:rgb(254,103,93);"/>
            </g>
            <g transform="matrix(0.895582,0,0,1,-2.10842,-4.81927)">
                <path d="M98.438,283.855C91.546,275.94 82.411,271.917 69.528,274.402C76.805,281.121 86.526,284.145 98.438,283.855Z" style="fill:rgb(254,103,93);"/>
            </g>
        </g>
        <g id="Lines" transform="matrix(1.16391,0,0,2.02955,-42.8566,-322.935)">
            <g transform="matrix(0.895582,0,0,1,-2.10842,-4.81927)">
                <path d="M290.531,274.469C294.955,267.25 303.743,264.395 316.792,265.801C309.77,273.193 301.003,276.047 290.531,274.469Z" style="fill:none;stroke:rgb(34,64,88);stroke-width:2.33px;"/>
            </g>
            <g transform="matrix(0.895582,0,0,1,-2.10842,-4.81927)">
                <path d="M281.683,407.859C269.02,399.997 261.616,388.468 260.337,372.671" style="fill:none;stroke:rgb(34,64,88);stroke-width:2.33px;"/>
            </g>
            <g transform="matrix(0.895582,0,0,1,-2.10842,-4.81927)">
                <path d="M260.337,372.671C271.385,382.828 279.26,394.253 281.683,407.859" style="fill:none;stroke:rgb(34,64,88);stroke-width:2.33px;"/>
            </g>
            <g transform="matrix(0.895582,0,0,1,-2.10842,-4.81927)">
                <path d="M60.857,382.681C98.707,456.661 229.136,477.63 301.188,418.706C335.37,393.059 345.714,352.816 338.626,301.901C332.656,259.979 315.014,227.7 289.672,201.781C266.371,180.911 237.289,168.084 198.49,168.776C199.289,185.039 201.686,203.47 192.678,206.423C184.164,202.716 186.135,185.728 187.878,169.028C152.682,168.881 120.911,181.809 93.127,209.961C71.378,232.664 55.833,260.024 52.952,294.858C47.555,326.067 48.057,355.516 60.857,382.681Z" style="fill:none;stroke:rgb(34,64,88);stroke-width:7.12px;"/>
            </g>
            <g transform="matrix(0.895582,0,0,1,-2.10842,-4.81927)">
                <path d="M187.055,221.225C177.55,252.175 176.559,281.803 192.068,308.871" style="fill:none;stroke:rgb(34,64,88);stroke-width:2.33px;"/>
            </g>
            <g transform="matrix(0.895582,0,0,1,-2.10842,-4.81927)">
                <path d="M185.276,215.727C170.31,252.42 166.811,285.334 189.804,309.518" style="fill:none;stroke:rgb(34,64,88);stroke-width:2.33px;"/>
            </g>
            <g transform="matrix(0.895582,0,0,1,-2.10842,-4.81927)">
                <path d="M201.429,309.789C212.593,282.205 210.135,251.647 197.289,218.819" style="fill:none;stroke:rgb(34,64,88);stroke-width:2.33px;"/>
            </g>
            <g transform="matrix(0.895582,0,0,1,-2.10842,-4.81927)">
                <path d="M199.566,217.681C216.626,249.227 221.248,279.623 205.465,308.134" style="fill:none;stroke:rgb(34,64,88);stroke-width:2.33px;"/>
            </g>
            <g transform="matrix(0.895582,0,0,1,-2.10842,-4.81927)">
                <path d="M211.414,316.674C234.377,292.976 257.554,279.138 280.948,275.276" style="fill:none;stroke:rgb(34,64,88);stroke-width:2.33px;"/>
            </g>
            <g transform="matrix(0.895582,0,0,1,-2.10842,-4.81927)">
                <path d="M212.546,309.72C240.685,278.883 265.156,260.443 280.786,271.88" style="fill:none;stroke:rgb(34,64,88);stroke-width:2.33px;"/>
            </g>
            <g transform="matrix(0.895582,0,0,1,-2.10842,-4.81927)">
                <path d="M216.588,323.789C242.433,315.327 264.86,302.443 283.374,284.494" style="fill:none;stroke:rgb(34,64,88);stroke-width:2.33px;"/>
            </g>
            <g transform="matrix(0.895582,0,0,1,-2.10842,-4.81927)">
                <path d="M218.367,325.891C255.53,318.379 280.073,305.675 288.063,282.391" style="fill:none;stroke:rgb(34,64,88);stroke-width:2.33px;"/>
            </g>
            <g transform="matrix(0.895582,0,0,1,-2.10842,-4.81927)">
                <path d="M217.185,333.447C237.61,337.268 251.926,346.134 256.854,362.757" style="fill:none;stroke:rgb(34,64,88);stroke-width:2.33px;"/>
            </g>
            <g transform="matrix(0.895582,0,0,1,-2.10842,-4.81927)">
                <path d="M218.195,330.163C247.523,334.74 265.264,343.69 258.875,361.746" style="fill:none;stroke:rgb(34,64,88);stroke-width:2.33px;"/>
            </g>
            <g transform="matrix(0.895582,0,0,1,-2.10842,-4.81927)">
                <path d="M204.046,337.49C218.229,348.69 233.739,359.392 253.316,368.568" style="fill:none;stroke:rgb(34,64,88);stroke-width:2.33px;"/>
            </g>
            <g transform="matrix(0.895582,0,0,1,-2.10842,-4.81927)">
                <path d="M203.541,339.764C219.721,361.723 235.115,373.73 249.274,370.084" style="fill:none;stroke:rgb(34,64,88);stroke-width:2.33px;"/>
            </g>
            <g transform="matrix(0.895582,0,0,1,-2.10842,-4.81927)">
                <path d="M195.708,343.807C183.459,361.829 169.045,372.275 152.754,376.148" style="fill:none;stroke:rgb(34,64,88);stroke-width:2.33px;"/>
            </g>
            <g transform="matrix(0.895582,0,0,1,-2.10842,-4.81927)">
                <path d="M192.928,339.764C175.399,348.559 162.199,359.52 152.754,372.358" style="fill:none;stroke:rgb(34,64,88);stroke-width:2.33px;"/>
            </g>
            <g transform="matrix(0.895582,0,0,1,-2.10842,-4.81927)">
                <path d="M180.042,336.985C156.511,341.455 143.186,351.801 141.889,369.074" style="fill:none;stroke:rgb(34,64,88);stroke-width:2.33px;"/>
            </g>
            <g transform="matrix(0.895582,0,0,1,-2.10842,-4.81927)">
                <path d="M178.526,334.458C146.438,338.817 130.855,349.722 137.847,369.579" style="fill:none;stroke:rgb(34,64,88);stroke-width:2.33px;"/>
            </g>
            <g transform="matrix(0.895582,0,0,1,-2.10842,-4.81927)">
                <path d="M104.494,290.241C125.617,306.302 148.633,320.179 178.526,326.12" style="fill:none;stroke:rgb(34,64,88);stroke-width:2.33px;"/>
            </g>
            <g transform="matrix(0.895582,0,0,1,-2.10842,-4.81927)">
                <path d="M103.736,292.768C119.096,313.96 141.181,328.428 176.758,329.405" style="fill:none;stroke:rgb(34,64,88);stroke-width:2.33px;"/>
            </g>
            <g transform="matrix(0.895582,0,0,1,-2.10842,-4.81927)">
                <path d="M183.327,317.529C170.063,321.15 142.19,276.57 109.295,282.408" style="fill:none;stroke:rgb(34,64,88);stroke-width:2.33px;"/>
            </g>
            <g transform="matrix(0.895582,0,0,1,-2.10842,-4.81927)">
                <path d="M108.032,275.839C138.797,276.445 162.753,285.17 176,306.664" style="fill:none;stroke:rgb(34,64,88);stroke-width:2.33px;"/>
            </g>
            <g transform="matrix(0.895582,0,0,1,-2.10842,-4.81927)">
                <path d="M199.664,358.829C203.869,375.345 204.43,390.74 199.664,404.496C195.63,389.274 195.42,374.051 199.664,358.829Z" style="fill:none;stroke:rgb(34,64,88);stroke-width:2.33px;"/>
            </g>
            <g transform="matrix(0.895582,0,0,1,-2.10842,-4.81927)">
                <path d="M136.322,377.571C131.459,390.878 124.074,400.245 114.795,406.653C119.039,392.694 126.007,382.698 136.322,377.571Z" style="fill:none;stroke:rgb(34,64,88);stroke-width:2.33px;"/>
            </g>
            <g transform="matrix(0.895582,0,0,1,-2.10842,-4.81927)">
                <path d="M98.438,283.855C91.546,275.94 82.411,271.917 69.528,274.402C76.805,281.121 86.526,284.145 98.438,283.855Z" style="fill:none;stroke:rgb(34,64,88);stroke-width:2.33px;"/>
            </g>
        </g>
        <g transform="matrix(1.04238,0,0,2.02955,-45.3106,-332.716)">
            <path d="M314.471,409.029C356.009,353.063 346.136,286.023 302.133,211.632L806.422,211.632L806.422,409.029L314.471,409.029Z" style="fill:rgb(34,64,88);stroke:rgb(34,64,88);stroke-width:2.33px;"/>
        </g>
        <g transform="matrix(0.621236,0,0,1.20957,99.3459,-50.2863)">
            <text x="358.253px" y="343.151px" style="font-family:'MerriweatherSans-Bold', 'Merriweather Sans';font-weight:700;font-size:144.247px;fill:rgb(235,235,235);">SHESELLS</text>
        </g>
    </g>
</svg>
